<svg width="13" height="13" viewBox="0 0 13 13" fill="none" xmlns="http://www.w3.org/2000/svg">
<path d="M12.0568 6.30737L7.05667 11.4167C6.99715 11.4774 6.93267 11.5202 6.86322 11.5453C6.79377 11.5708 6.71937 11.5835 6.64 11.5835C6.56063 11.5835 6.48623 11.5708 6.41678 11.5453C6.34734 11.5202 6.28285 11.4774 6.22332 11.4167L1.20834 6.30737C1.06945 6.16586 1 5.98898 1 5.77672C1 5.56446 1.07441 5.38253 1.22322 5.23092C1.37203 5.0793 1.54565 5.0035 1.74406 5.0035C1.94248 5.0035 2.11609 5.0793 2.26491 5.23092L6.64 9.68833L11.0151 5.23092C11.154 5.08941 11.325 5.01866 11.5282 5.01866C11.7318 5.01866 11.908 5.09446 12.0568 5.24608C12.2056 5.39769 12.28 5.57457 12.28 5.77672C12.28 5.97887 12.2056 6.15575 12.0568 6.30737Z" fill="#F5F7F8" fill-opacity="0.25"/>
</svg>
