<svg width="12" height="7" viewBox="0 0 12 7" fill="none" xmlns="http://www.w3.org/2000/svg">
<path d="M11.0627 1.30456L6.05989 6.41663C6.00034 6.47731 5.93582 6.52019 5.86633 6.54527C5.79685 6.57075 5.72241 6.5835 5.643 6.5835C5.56359 6.5835 5.48914 6.57075 5.41966 6.54527C5.35018 6.52019 5.28566 6.47731 5.2261 6.41663L0.208448 1.30456C0.0694825 1.16298 -2.44674e-07 0.986008 -2.53957e-07 0.773637C-2.6324e-07 0.561266 0.0744456 0.379234 0.223337 0.227541C0.372229 0.0758476 0.545936 9.29811e-07 0.744458 9.21133e-07C0.942981 9.12455e-07 1.11669 0.0758476 1.26558 0.227541L5.643 4.68733L10.0204 0.227541C10.1594 0.0859599 10.3305 0.0151696 10.5338 0.0151696C10.7375 0.0151696 10.9138 0.0910163 11.0627 0.24271C11.2115 0.394403 11.286 0.571379 11.286 0.773637C11.286 0.975894 11.2115 1.15287 11.0627 1.30456Z" fill="#F5F7F8"/>
</svg>
