<svg width="32" height="32" viewBox="0 0 32 32" fill="none" xmlns="http://www.w3.org/2000/svg">
<g opacity="0.5">
<path d="M4.05155 27.9504C6.10395 30 9.40235 30 16.002 30C22.6016 30 25.9014 30 27.951 27.949C30.002 25.9008 30.002 22.5996 30.002 16C30.002 9.4004 30.002 6.1006 27.951 4.0496C25.9028 2 22.6016 2 16.002 2C9.40235 2 6.10255 2 4.05155 4.0496C2.00195 6.102 2.00195 9.4004 2.00195 16C2.00195 22.5996 2.00195 25.9008 4.05155 27.9504Z" stroke="#8E8E93" stroke-width="2.24"/>
<path d="M24.4016 11.0998H18.8016M24.4016 19.4998H18.8016M24.4016 23.6998H18.8016M13.2016 11.0998H10.4016M10.4016 11.0998H7.60156M10.4016 11.0998V8.2998M10.4016 11.0998V13.8998M12.5016 19.4998L10.4016 21.5998M10.4016 21.5998L8.30156 23.6998M10.4016 21.5998L8.30156 19.4998M10.4016 21.5998L12.5016 23.6998" stroke="#8E8E93" stroke-width="2.24" stroke-linecap="round"/>
</g>
</svg>
