<svg width="32" height="32" viewBox="0 0 32 32" fill="none" xmlns="http://www.w3.org/2000/svg">
<g opacity="0.5">
<path d="M2 9H30M5.5 2H26.5C27.4283 2 28.3185 2.36875 28.9749 3.02513C29.6313 3.6815 30 4.57174 30 5.5V26.5C30 27.4283 29.6313 28.3185 28.9749 28.9749C28.3185 29.6313 27.4283 30 26.5 30H5.5C4.57174 30 3.6815 29.6313 3.02513 28.9749C2.36875 28.3185 2 27.4283 2 26.5V5.5C2 4.57174 2.36875 3.6815 3.02513 3.02513C3.6815 2.36875 4.57174 2 5.5 2Z" stroke="#8E8E93" stroke-width="2.24" stroke-linecap="round" stroke-linejoin="round"/>
<path d="M16.63 16C16.63 16.3479 16.3479 16.63 16 16.63C15.6521 16.63 15.37 16.3479 15.37 16C15.37 15.6521 15.6521 15.37 16 15.37C16.3479 15.37 16.63 15.6521 16.63 16Z" fill="#8E8E93" stroke="#8E8E93" stroke-width="2.24"/>
<path d="M9.63 16C9.63 16.3479 9.34794 16.63 9 16.63C8.65206 16.63 8.37 16.3479 8.37 16C8.37 15.6521 8.65206 15.37 9 15.37C9.34794 15.37 9.63 15.6521 9.63 16Z" fill="#8E8E93" stroke="#8E8E93" stroke-width="2.24"/>
<path d="M23.63 16C23.63 16.3479 23.3479 16.63 23 16.63C22.6521 16.63 22.37 16.3479 22.37 16C22.37 15.6521 22.6521 15.37 23 15.37C23.3479 15.37 23.63 15.6521 23.63 16Z" fill="#8E8E93" stroke="#8E8E93" stroke-width="2.24"/>
<path d="M16.63 23C16.63 23.3479 16.3479 23.63 16 23.63C15.6521 23.63 15.37 23.3479 15.37 23C15.37 22.6521 15.6521 22.37 16 22.37C16.3479 22.37 16.63 22.6521 16.63 23Z" fill="#8E8E93" stroke="#8E8E93" stroke-width="2.24"/>
<path d="M9.63 23C9.63 23.3479 9.34794 23.63 9 23.63C8.65206 23.63 8.37 23.3479 8.37 23C8.37 22.6521 8.65206 22.37 9 22.37C9.34794 22.37 9.63 22.6521 9.63 23Z" fill="#8E8E93" stroke="#8E8E93" stroke-width="2.24"/>
<path d="M23.63 23C23.63 23.3479 23.3479 23.63 23 23.63C22.6521 23.63 22.37 23.3479 22.37 23C22.37 22.6521 22.6521 22.37 23 22.37C23.3479 22.37 23.63 22.6521 23.63 23Z" fill="#8E8E93" stroke="#8E8E93" stroke-width="2.24"/>
</g>
</svg>
