<svg width="23" height="22" viewBox="0 0 23 22" fill="none" xmlns="http://www.w3.org/2000/svg">
<path fill-rule="evenodd" clip-rule="evenodd" d="M13.7663 11.0204L21.7739 19.028C22.0773 19.3314 22.2499 19.7408 22.2538 20.166C22.2576 20.5912 22.0923 20.9975 21.7944 21.2955C21.4964 21.5935 21.0901 21.7587 20.6649 21.7549C20.2396 21.7511 19.8303 21.5785 19.5269 21.2751L11.5193 13.2675L3.65473 21.1321C3.35675 21.43 2.95046 21.5953 2.52523 21.5915C2.1 21.5876 1.69066 21.415 1.38727 21.1116C1.08388 20.8082 0.911283 20.3989 0.907452 19.9737C0.903621 19.5484 1.06887 19.1422 1.36684 18.8442L9.23143 10.9796L1.22384 2.972C0.92045 2.66861 0.747854 2.25927 0.744023 1.83404C0.740192 1.40881 0.90544 1.00252 1.20341 0.704545C1.50139 0.406571 1.90768 0.241323 2.33291 0.245154C2.75814 0.248986 3.16748 0.421582 3.47087 0.724974L11.4785 8.73256L19.3431 0.867973C19.641 0.57 20.0473 0.404752 20.4725 0.408582C20.8978 0.412413 21.3071 0.58501 21.6105 0.888403C21.9139 1.19179 22.0865 1.60113 22.0903 2.02636C22.0942 2.45159 21.9289 2.85788 21.6309 3.15586L13.7663 11.0204Z" fill="#F5F7F8"/>
</svg>
