<svg width="20" height="22" viewBox="0 0 20 22" fill="none" xmlns="http://www.w3.org/2000/svg">
<path d="M7.50086 14.8499L4.58419 11.6416C4.50793 11.5567 4.41709 11.4892 4.31696 11.4432C4.21682 11.3972 4.10938 11.3735 4.00086 11.3735C3.89234 11.3735 3.7849 11.3972 3.68476 11.4432C3.58463 11.4892 3.4938 11.5567 3.41753 11.6416C3.34033 11.7255 3.27903 11.8254 3.2372 11.9355C3.19537 12.0457 3.17383 12.1639 3.17383 12.2832C3.17383 12.4026 3.19537 12.5208 3.2372 12.6309C3.27903 12.7411 3.34033 12.841 3.41753 12.9249L6.90919 16.7657C7.23419 17.1232 7.75919 17.1232 8.08419 16.7657L16.9175 7.05824C16.9947 6.97434 17.056 6.87442 17.0979 6.76428C17.1397 6.65413 17.1612 6.53594 17.1612 6.41657C17.1612 6.2972 17.1397 6.17901 17.0979 6.06887C17.056 5.95872 16.9947 5.8588 16.9175 5.77491C16.8413 5.68999 16.7504 5.62256 16.6503 5.57655C16.5502 5.53053 16.4427 5.50684 16.3342 5.50684C16.2257 5.50684 16.1182 5.53053 16.0181 5.57655C15.918 5.62256 15.8271 5.68999 15.7509 5.77491L7.50086 14.8499Z" fill="#FFDB27"/>
</svg>
