<svg width="11" height="18" viewBox="0 0 11 18" fill="none" xmlns="http://www.w3.org/2000/svg">
<path d="M2.17973 0.35632L10.7212 8.33521C10.8226 8.4302 10.8942 8.5331 10.9361 8.64392C10.9787 8.75474 11 8.87347 11 9.00012C11 9.12677 10.9787 9.2455 10.9361 9.35632C10.8942 9.46714 10.8226 9.57004 10.7212 9.66503L2.17973 17.6677C1.94317 17.8893 1.64747 18.0001 1.29263 18.0001C0.937791 18.0001 0.633644 17.8814 0.380188 17.6439C0.126732 17.4065 3.8651e-06 17.1294 3.88343e-06 16.8128C3.90175e-06 16.4962 0.126732 16.2191 0.380188 15.9817L7.8318 9.00012L0.380189 2.01859C0.143629 1.79695 0.0253496 1.52402 0.0253496 1.1998C0.0253497 0.874947 0.152078 0.593787 0.405534 0.35632C0.65899 0.118853 0.954689 0.000119031 1.29263 0.000119069C1.63057 0.000119107 1.92627 0.118854 2.17973 0.35632Z" fill="#8E8E93"/>
</svg>
