<svg width="8" height="13" viewBox="0 0 8 13" fill="none" xmlns="http://www.w3.org/2000/svg">
<path d="M1.50334 0.257257L7.39178 6.01979C7.46167 6.08839 7.51106 6.16271 7.53995 6.24274C7.56931 6.32278 7.58398 6.40853 7.58398 6.5C7.58398 6.59147 7.56931 6.67722 7.53995 6.75726C7.51106 6.83729 7.46167 6.91161 7.39178 6.98021L1.50334 12.7599C1.34026 12.92 1.1364 13 0.89178 13C0.647157 13 0.437479 12.9142 0.262748 12.7427C0.0880169 12.5712 0.000651305 12.3712 0.000651285 12.1425C0.000651265 11.9138 0.0880169 11.7137 0.262748 11.5422L5.39984 6.5L0.262747 1.45778C0.0996651 1.29771 0.0181235 1.1006 0.0181235 0.86644C0.0181235 0.631822 0.105489 0.428761 0.28022 0.257257C0.454951 0.0857531 0.658804 6.05418e-07 0.891779 5.85051e-07C1.12475 5.64684e-07 1.32861 0.085753 1.50334 0.257257Z" fill="#F5F7F8"/>
</svg>
