<svg width="28" height="32" viewBox="0 0 28 32" fill="none" xmlns="http://www.w3.org/2000/svg">
<g opacity="0.5">
<path d="M9.05824 3.98125C7.28939 4.4731 5.53264 5.00825 3.78953 5.58625C3.63024 5.63811 3.48864 5.7342 3.38091 5.86352C3.27318 5.99284 3.20369 6.15017 3.18039 6.3175C2.15153 14.1119 4.52867 19.7987 7.36453 23.545C8.56467 25.1475 9.9964 26.5588 11.6118 27.7319C12.2544 28.1894 12.8227 28.5194 13.2702 28.7313C13.4931 28.8375 13.6745 28.9112 13.8144 28.9525C13.8761 28.9714 13.9387 28.987 14.002 28.9994C14.0646 28.987 14.1266 28.9713 14.1877 28.9525C14.3288 28.91 14.5108 28.8363 14.7337 28.7313C15.1794 28.5194 15.7495 28.1875 16.3921 27.7319C18.0075 26.5588 19.4392 25.1475 20.6394 23.545C23.4752 19.8006 25.8524 14.1119 24.8235 6.3175C24.8002 6.15017 24.7307 5.99284 24.623 5.86352C24.5153 5.7342 24.3737 5.63811 24.2144 5.58625C23.0054 5.18688 20.9644 4.53625 18.9457 3.98312C16.8842 3.41875 14.9881 3.00063 14.002 3.00063C13.0177 3.00063 11.1197 3.41688 9.05824 3.98125ZM8.56424 2.05C10.5792 1.49688 12.7205 1 14.002 1C15.2834 1 17.4247 1.49688 19.4397 2.05C21.5011 2.6125 23.5792 3.27812 24.8012 3.68125C25.3121 3.8516 25.7651 4.164 26.1081 4.58256C26.451 5.00113 26.6701 5.50889 26.7401 6.0475C27.8469 14.4419 25.2785 20.6631 22.1622 24.7787C20.8402 26.5389 19.2646 28.0892 17.4878 29.3781C16.8741 29.8252 16.2228 30.2173 15.5415 30.55C15.0215 30.7975 14.4625 31 14.002 31C13.5414 31 12.9842 30.7975 12.4624 30.55C11.7811 30.2173 11.1298 29.8252 10.5161 29.3781C8.73928 28.0892 7.16367 26.5389 5.84167 24.7787C2.72539 20.6631 0.156964 14.4419 1.26382 6.0475C1.33381 5.50889 1.55287 5.00113 1.89584 4.58256C2.2388 4.164 2.69176 3.8516 3.20268 3.68125C4.97672 3.09439 6.76442 2.55049 8.56424 2.05Z" fill="#8E8E93" stroke="#8E8E93" stroke-width="0.7"/>
<path d="M16.7882 13.1876C16.7885 13.7695 16.6101 14.3371 16.2775 14.8123C15.9448 15.2874 15.4744 15.6468 14.9311 15.8407L15.6461 19.572C15.6721 19.7077 15.6681 19.8475 15.6343 19.9815C15.6005 20.1154 15.5378 20.2402 15.4506 20.3468C15.3635 20.4534 15.2541 20.5392 15.1302 20.5982C15.0064 20.6571 14.8711 20.6876 14.7342 20.6876H13.2708C13.134 20.6873 12.999 20.6566 12.8754 20.5976C12.7518 20.5385 12.6426 20.4527 12.5557 20.3461C12.4687 20.2395 12.4062 20.1148 12.3725 19.981C12.3388 19.8472 12.3348 19.7075 12.3608 19.572L13.0739 15.8407C12.5925 15.6689 12.1671 15.3667 11.8442 14.9673C11.5214 14.5678 11.3135 14.0865 11.2433 13.5758C11.173 13.0652 11.2432 12.5448 11.4461 12.0717C11.6489 11.5986 11.9767 11.1909 12.3936 10.8931C12.8104 10.5953 13.3004 10.419 13.8098 10.3833C14.3192 10.3476 14.8285 10.454 15.2821 10.6909C15.7357 10.9277 16.1161 11.2858 16.3817 11.7261C16.6473 12.1665 16.788 12.672 16.7882 13.1876Z" fill="#8E8E93" stroke="#8E8E93" stroke-width="0.7"/>
</g>
</svg>
