<svg width="11" height="18" viewBox="0 0 11 18" fill="none" xmlns="http://www.w3.org/2000/svg">
<path d="M8.82027 0.356198L0.278801 8.33509C0.177419 8.43008 0.105775 8.53298 0.0638704 8.6438C0.0212898 8.75462 -5.28294e-07 8.87335 -5.20963e-07 9C-5.13632e-07 9.12665 0.0212898 9.24538 0.0638704 9.3562C0.105775 9.46702 0.177419 9.56992 0.278801 9.66491L8.82027 17.6675C9.05683 17.8892 9.35253 18 9.70737 18C10.0622 18 10.3664 17.8813 10.6198 17.6438C10.8733 17.4063 11 17.1293 11 16.8127C11 16.496 10.8733 16.219 10.6198 15.9815L3.1682 9L10.6198 2.01847C10.8564 1.79683 10.9747 1.5239 10.9747 1.19968C10.9747 0.874825 10.8479 0.593665 10.5945 0.356198C10.341 0.118731 10.0453 -3.03907e-06 9.70737 -3.00099e-06C9.36943 -2.96292e-06 9.07373 0.118731 8.82027 0.356198Z" fill="#8E8E93"/>
</svg>
