<svg width="20" height="17" viewBox="0 0 20 17" fill="none" xmlns="http://www.w3.org/2000/svg">
<path d="M3 6H1V16H19V6H17.5M13.5 5C13.8914 5.2263 14.2265 5.53813 14.4804 5.91218C14.7343 6.28623 14.9004 6.71283 14.9663 7.16009C15.0321 7.60735 14.996 8.06371 14.8607 8.49507C14.7254 8.92642 14.4943 9.32162 14.1848 9.65112C13.8753 9.98061 13.4953 10.2359 13.0732 10.3979C12.6511 10.5599 12.1979 10.6244 11.7474 10.5866C11.2969 10.5488 10.8608 10.4096 10.4716 10.1796C10.0824 9.94951 9.75029 9.63448 9.5 9.258M11 4C11 4.79565 10.6839 5.55871 10.1213 6.12132C9.55871 6.68393 8.79565 7 8 7C7.20435 7 6.44129 6.68393 5.87868 6.12132C5.31607 5.55871 5 4.79565 5 4C5 3.20435 5.31607 2.44129 5.87868 1.87868C6.44129 1.31607 7.20435 1 8 1C8.79565 1 9.55871 1.31607 10.1213 1.87868C10.6839 2.44129 11 3.20435 11 4Z" stroke="#FFDB27" stroke-width="1.5" stroke-linecap="round" stroke-linejoin="round"/>
</svg>
