<svg width="18" height="18" viewBox="0 0 18 18" fill="none" xmlns="http://www.w3.org/2000/svg">
<mask id="path-1-inside-1_296_2175" fill="white">
<path d="M9 3.9375C9 3.78832 8.94074 3.64524 8.83525 3.53975C8.72976 3.43426 8.58668 3.375 8.4375 3.375C8.28832 3.375 8.14524 3.43426 8.03975 3.53975C7.93426 3.64524 7.875 3.78832 7.875 3.9375V10.125C7.87503 10.2241 7.90127 10.3215 7.95106 10.4073C8.00084 10.493 8.07241 10.5641 8.1585 10.6132L12.096 12.8632C12.2252 12.9331 12.3766 12.9496 12.5179 12.9093C12.6591 12.869 12.779 12.775 12.8518 12.6475C12.9247 12.5199 12.9448 12.369 12.9078 12.2268C12.8709 12.0847 12.7798 11.9626 12.654 11.8868L9 9.79875V3.9375Z"/>
</mask>
<path d="M9 3.9375C9 3.78832 8.94074 3.64524 8.83525 3.53975C8.72976 3.43426 8.58668 3.375 8.4375 3.375C8.28832 3.375 8.14524 3.43426 8.03975 3.53975C7.93426 3.64524 7.875 3.78832 7.875 3.9375V10.125C7.87503 10.2241 7.90127 10.3215 7.95106 10.4073C8.00084 10.493 8.07241 10.5641 8.1585 10.6132L12.096 12.8632C12.2252 12.9331 12.3766 12.9496 12.5179 12.9093C12.6591 12.869 12.779 12.775 12.8518 12.6475C12.9247 12.5199 12.9448 12.369 12.9078 12.2268C12.8709 12.0847 12.7798 11.9626 12.654 11.8868L9 9.79875V3.9375Z" fill="#FFDB27"/>
<path d="M7.875 10.125H6.375L6.375 10.1255L7.875 10.125ZM8.1585 10.6132L8.90271 9.31089L8.9025 9.31077L8.1585 10.6132ZM12.096 12.8632L11.3518 14.1656L11.3672 14.1744L11.3828 14.1829L12.096 12.8632ZM12.654 11.8868L13.4288 10.6024L13.4136 10.5932L13.3982 10.5844L12.654 11.8868ZM9 9.79875H7.5V10.6692L8.25579 11.1011L9 9.79875ZM10.5 3.9375C10.5 3.39049 10.2827 2.86589 9.89591 2.47909L7.77459 4.60041C7.59877 4.4246 7.5 4.18614 7.5 3.9375H10.5ZM9.89591 2.47909C9.50911 2.0923 8.98451 1.875 8.4375 1.875V4.875C8.18886 4.875 7.9504 4.77623 7.77459 4.60041L9.89591 2.47909ZM8.4375 1.875C7.89049 1.875 7.36589 2.0923 6.97909 2.47909L9.10041 4.60041C8.9246 4.77623 8.68614 4.875 8.4375 4.875V1.875ZM6.97909 2.47909C6.5923 2.86589 6.375 3.39049 6.375 3.9375H9.375C9.375 4.18614 9.27623 4.4246 9.10041 4.60041L6.97909 2.47909ZM6.375 3.9375V10.125H9.375V3.9375H6.375ZM6.375 10.1255C6.37512 10.489 6.47132 10.8461 6.65387 11.1605L9.24824 9.65407C9.33122 9.79697 9.37495 9.95927 9.375 10.1245L6.375 10.1255ZM6.65387 11.1605C6.83642 11.4749 7.09883 11.7354 7.4145 11.9157L8.9025 9.31077C9.04599 9.39273 9.16526 9.51116 9.24824 9.65407L6.65387 11.1605ZM7.41429 11.9156L11.3518 14.1656L12.8402 11.5609L8.90271 9.31089L7.41429 11.9156ZM11.3828 14.1829C11.8566 14.4389 12.4118 14.4995 12.9296 14.3517L12.1061 11.4669C12.3415 11.3997 12.5938 11.4272 12.8092 11.5436L11.3828 14.1829ZM12.9296 14.3517C13.4475 14.2038 13.887 13.8593 14.1542 13.3917L11.5495 11.9033C11.6709 11.6907 11.8707 11.5341 12.1061 11.4669L12.9296 14.3517ZM14.1542 13.3917C14.4214 12.9241 14.4951 12.3705 14.3596 11.8493L11.4561 12.6043C11.3945 12.3674 11.428 12.1158 11.5495 11.9033L14.1542 13.3917ZM14.3596 11.8493C14.224 11.3281 13.89 10.8806 13.4288 10.6024L11.8792 13.1711C11.6696 13.0447 11.5177 12.8413 11.4561 12.6043L14.3596 11.8493ZM13.3982 10.5844L9.74421 8.49639L8.25579 11.1011L11.9098 13.1891L13.3982 10.5844ZM10.5 9.79875V3.9375H7.5V9.79875H10.5Z" fill="#FFDB27" mask="url(#path-1-inside-1_296_2175)"/>
<mask id="path-3-inside-2_296_2175" fill="white">
<path d="M9 18C11.3869 18 13.6761 17.0518 15.364 15.364C17.0518 13.6761 18 11.3869 18 9C18 6.61305 17.0518 4.32387 15.364 2.63604C13.6761 0.948212 11.3869 0 9 0C6.61305 0 4.32387 0.948212 2.63604 2.63604C0.948212 4.32387 0 6.61305 0 9C0 11.3869 0.948212 13.6761 2.63604 15.364C4.32387 17.0518 6.61305 18 9 18ZM16.875 9C16.875 11.0886 16.0453 13.0916 14.5685 14.5685C13.0916 16.0453 11.0886 16.875 9 16.875C6.91142 16.875 4.90838 16.0453 3.43153 14.5685C1.95468 13.0916 1.125 11.0886 1.125 9C1.125 6.91142 1.95468 4.90838 3.43153 3.43153C4.90838 1.95468 6.91142 1.125 9 1.125C11.0886 1.125 13.0916 1.95468 14.5685 3.43153C16.0453 4.90838 16.875 6.91142 16.875 9Z"/>
</mask>
<path d="M9 18C11.3869 18 13.6761 17.0518 15.364 15.364C17.0518 13.6761 18 11.3869 18 9C18 6.61305 17.0518 4.32387 15.364 2.63604C13.6761 0.948212 11.3869 0 9 0C6.61305 0 4.32387 0.948212 2.63604 2.63604C0.948212 4.32387 0 6.61305 0 9C0 11.3869 0.948212 13.6761 2.63604 15.364C4.32387 17.0518 6.61305 18 9 18ZM16.875 9C16.875 11.0886 16.0453 13.0916 14.5685 14.5685C13.0916 16.0453 11.0886 16.875 9 16.875C6.91142 16.875 4.90838 16.0453 3.43153 14.5685C1.95468 13.0916 1.125 11.0886 1.125 9C1.125 6.91142 1.95468 4.90838 3.43153 3.43153C4.90838 1.95468 6.91142 1.125 9 1.125C11.0886 1.125 13.0916 1.95468 14.5685 3.43153C16.0453 4.90838 16.875 6.91142 16.875 9Z" fill="#FFDB27"/>
<path d="M9 18V19.5V18ZM18 9H19.5H18ZM9 0V-1.5V0ZM0 9H-1.5H0ZM16.875 9H18.375H16.875ZM1.125 9H-0.375H1.125ZM9 1.125V-0.375V1.125ZM9 19.5C11.7848 19.5 14.4555 18.3938 16.4246 16.4246L14.3033 14.3033C12.8968 15.7098 10.9891 16.5 9 16.5V19.5ZM16.4246 16.4246C18.3938 14.4555 19.5 11.7848 19.5 9H16.5C16.5 10.9891 15.7098 12.8968 14.3033 14.3033L16.4246 16.4246ZM19.5 9C19.5 6.21523 18.3938 3.54451 16.4246 1.57538L14.3033 3.6967C15.7098 5.10322 16.5 7.01088 16.5 9H19.5ZM16.4246 1.57538C14.4555 -0.393753 11.7848 -1.5 9 -1.5V1.5C10.9891 1.5 12.8968 2.29018 14.3033 3.6967L16.4246 1.57538ZM9 -1.5C6.21523 -1.5 3.54451 -0.393753 1.57538 1.57538L3.6967 3.6967C5.10322 2.29018 7.01088 1.5 9 1.5V-1.5ZM1.57538 1.57538C-0.393753 3.54451 -1.5 6.21523 -1.5 9H1.5C1.5 7.01088 2.29018 5.10322 3.6967 3.6967L1.57538 1.57538ZM-1.5 9C-1.5 11.7848 -0.393753 14.4555 1.57538 16.4246L3.6967 14.3033C2.29018 12.8968 1.5 10.9891 1.5 9H-1.5ZM1.57538 16.4246C3.54451 18.3938 6.21523 19.5 9 19.5V16.5C7.01088 16.5 5.10322 15.7098 3.6967 14.3033L1.57538 16.4246ZM15.375 9C15.375 10.6908 14.7034 12.3123 13.5078 13.5078L15.6291 15.6291C17.3873 13.871 18.375 11.4864 18.375 9H15.375ZM13.5078 13.5078C12.3123 14.7034 10.6908 15.375 9 15.375V18.375C11.4864 18.375 13.871 17.3873 15.6291 15.6291L13.5078 13.5078ZM9 15.375C7.30925 15.375 5.68774 14.7034 4.49219 13.5078L2.37087 15.6291C4.12903 17.3873 6.5136 18.375 9 18.375V15.375ZM4.49219 13.5078C3.29665 12.3123 2.625 10.6908 2.625 9H-0.375C-0.375 11.4864 0.61272 13.871 2.37087 15.6291L4.49219 13.5078ZM2.625 9C2.625 7.30924 3.29665 5.68774 4.49219 4.49219L2.37087 2.37087C0.61272 4.12903 -0.375 6.5136 -0.375 9H2.625ZM4.49219 4.49219C5.68774 3.29665 7.30924 2.625 9 2.625V-0.375C6.5136 -0.375 4.12903 0.61272 2.37087 2.37087L4.49219 4.49219ZM9 2.625C10.6908 2.625 12.3123 3.29665 13.5078 4.49219L15.6291 2.37087C13.871 0.61272 11.4864 -0.375 9 -0.375V2.625ZM13.5078 4.49219C14.7034 5.68774 15.375 7.30925 15.375 9H18.375C18.375 6.5136 17.3873 4.12903 15.6291 2.37087L13.5078 4.49219Z" fill="#FFDB27" mask="url(#path-3-inside-2_296_2175)"/>
</svg>
