<svg width="18" height="20" viewBox="0 0 18 20" fill="none" xmlns="http://www.w3.org/2000/svg">
<path d="M17.3633 14.4979L17.3638 14.4987C17.4524 14.6506 17.4994 14.8232 17.5 14.999C17.5006 15.1741 17.4553 15.3462 17.3686 15.4982L16.9339 14.7512C16.2695 13.6091 15.5015 10.8289 15.5015 7.5013C15.5015 5.77711 14.8166 4.12355 13.5974 2.90437C12.3782 1.68519 10.7247 1.00026 9.00047 1.00026C7.27629 1.00026 5.62272 1.68519 4.40354 2.90437C3.18436 4.12355 2.49943 5.77711 2.49943 7.5013C2.49943 10.8316 1.7296 13.6118 1.06695 14.7512L0.631969 15.4992C0.544917 15.347 0.499404 15.1745 0.500006 14.9992C0.50061 14.8233 0.547582 14.6507 0.636187 14.4987L0.636675 14.4979C1.21523 13.5013 1.99917 10.8706 1.99917 7.5013C1.99917 5.64444 2.73681 3.86363 4.0498 2.55063C5.3628 1.23763 7.14361 0.5 9.00047 0.5C10.8573 0.5 12.6381 1.23763 13.9511 2.55063C15.2641 3.86363 16.0018 5.64444 16.0018 7.5013C16.0018 10.8695 16.7847 13.5012 17.3633 14.4979ZM16.5018 15.5026H17.3661C17.2786 15.6541 17.153 15.78 17.0017 15.8678C16.8496 15.956 16.6769 16.0026 16.5011 16.0029H12.6752H12.267L12.1853 16.4027C12.0353 17.1367 11.6364 17.7963 11.0561 18.2701C10.4757 18.7438 9.7496 19.0025 9.00047 19.0025C8.25134 19.0025 7.5252 18.7438 6.94487 18.2701C6.36454 17.7963 5.96564 17.1367 5.81565 16.4027L5.73392 16.0029H5.32577H1.49953C1.32365 16.0027 1.1509 15.9562 0.998721 15.868C0.847226 15.7802 0.721444 15.6542 0.633934 15.5026H1.49917H16.5018ZM6.87948 16.0029H6.17237L6.40807 16.6695C6.59761 17.2056 6.94865 17.6698 7.41288 17.9982C7.8771 18.3265 8.43169 18.5029 9.00031 18.5031H9.00062C9.56924 18.5029 10.1238 18.3265 10.5881 17.9982C11.0523 17.6698 11.4033 17.2056 11.5929 16.6695L11.8286 16.0029H11.1215H6.87948Z" fill="#FFDB27" stroke="#FFDB27"/>
</svg>
