<svg width="19" height="19" viewBox="0 0 19 19" fill="none" xmlns="http://www.w3.org/2000/svg">
<path d="M10.541 17.8332L17.8327 10.5415M10.541 17.8332V11.5832C10.541 11.3069 10.6508 11.042 10.8461 10.8466C11.0415 10.6513 11.3064 10.5415 11.5827 10.5415H17.8327M10.541 17.8332H3.24935C2.69681 17.8332 2.16691 17.6137 1.77621 17.223C1.38551 16.8323 1.16602 16.3024 1.16602 15.7498V3.24984C1.16602 2.6973 1.38551 2.1674 1.77621 1.7767C2.16691 1.386 2.69681 1.1665 3.24935 1.1665H15.7493C16.3019 1.1665 16.8318 1.386 17.2225 1.7767C17.6132 2.1674 17.8327 2.6973 17.8327 3.24984V10.5415" stroke="#FFDB27" stroke-width="2" stroke-linecap="round" stroke-linejoin="round"/>
</svg>
