<svg width="18" height="15" viewBox="0 0 18 15" fill="none" xmlns="http://www.w3.org/2000/svg">
<mask id="path-1-inside-1_296_2155" fill="white">
<path d="M1.12552 2.57718C1.27283 2.57816 1.41885 2.54571 1.55522 2.48168C1.69159 2.41764 1.81561 2.32329 1.92018 2.20404C2.02475 2.08479 2.10781 1.94298 2.16459 1.78675C2.22136 1.63052 2.25074 1.46295 2.25104 1.29364C2.2517 1.12354 2.22303 0.954988 2.1667 0.797698C2.11037 0.640408 2.02749 0.4975 1.92285 0.377226C1.8182 0.256951 1.69386 0.161692 1.55701 0.0969486C1.42016 0.0322049 1.27351 -0.000741137 1.12552 1.2648e-05C0.827107 0.00036056 0.541002 0.136765 0.329992 0.379291C0.118981 0.621817 0.000302702 0.950653 0 1.29364C0 2.002 0.50921 2.57718 1.12552 2.57718ZM5.07418 2.11502H17.2765C17.6874 2.11502 17.9999 1.7558 17.9999 1.29364C17.9999 0.821396 17.6874 0.462178 17.2765 0.462178H5.0738C4.67169 0.462178 4.35915 0.821396 4.35915 1.29364C4.35787 1.40191 4.37548 1.50938 4.41094 1.6097C4.4464 1.71002 4.49899 1.80116 4.56561 1.87772C4.63223 1.95429 4.71152 2.01474 4.79881 2.0555C4.88609 2.09625 4.9796 2.11649 5.0738 2.11502M1.12552 8.78859C1.27351 8.78935 1.42016 8.7564 1.55701 8.69166C1.69386 8.62691 1.8182 8.53165 1.92285 8.41138C2.02749 8.29111 2.11037 8.1482 2.1667 7.99091C2.22303 7.83362 2.2517 7.66506 2.25104 7.49497C2.2517 7.32488 2.22303 7.15632 2.1667 6.99903C2.11037 6.84174 2.02749 6.69883 1.92285 6.57856C1.8182 6.45828 1.69386 6.36302 1.55701 6.29828C1.42016 6.23354 1.27351 6.20059 1.12552 6.20134C0.827107 6.20169 0.541002 6.3381 0.329992 6.58062C0.118981 6.82315 0.000302702 7.15199 0 7.49497C0.000302702 7.83795 0.118981 8.16679 0.329992 8.40931C0.541002 8.65184 0.827107 8.78824 1.12552 8.78859ZM5.07418 8.32687H17.2765C17.3719 8.32816 17.4665 8.30752 17.5548 8.26617C17.6431 8.22481 17.7233 8.16358 17.7907 8.08606C17.8581 8.00855 17.9113 7.91632 17.9473 7.81481C17.9832 7.7133 18.0011 7.60455 17.9999 7.49497C17.9999 7.03324 17.6874 6.67359 17.2765 6.67359H5.0738C4.9796 6.67211 4.88609 6.69235 4.79881 6.73311C4.71152 6.77387 4.63223 6.83431 4.56561 6.91088C4.49899 6.98745 4.4464 7.07858 4.41094 7.1789C4.37548 7.27922 4.35787 7.3867 4.35915 7.49497C4.35915 7.95713 4.67169 8.32687 5.0738 8.32687M1.12552 15C1.42393 14.9997 1.71004 14.8632 1.92105 14.6207C2.13206 14.3782 2.25074 14.0494 2.25104 13.7064C2.2517 13.5363 2.22303 13.3677 2.1667 13.2104C2.11037 13.0531 2.02749 12.9102 1.92285 12.79C1.8182 12.6697 1.69386 12.5744 1.55701 12.5097C1.42016 12.4449 1.27351 12.412 1.12552 12.4128C0.827107 12.4131 0.541002 12.5495 0.329992 12.792C0.118981 13.0346 0.000302702 13.3634 0 13.7064C0.00170079 14.0489 0.120828 14.3768 0.331537 14.6189C0.542245 14.8611 0.827539 14.998 1.12552 15ZM5.07418 14.5278H17.2765C17.6874 14.5278 17.9999 14.1685 17.9999 13.7064C17.9999 13.2341 17.6874 12.8749 17.2765 12.8749H5.0738C4.67169 12.8749 4.35915 13.2341 4.35915 13.7064C4.35787 13.8146 4.37548 13.9221 4.41094 14.0224C4.4464 14.1228 4.49899 14.2139 4.56561 14.2905C4.63223 14.367 4.71152 14.4275 4.79881 14.4682C4.88609 14.509 4.9796 14.5292 5.0738 14.5278"/>
</mask>
<path d="M1.12552 2.57718C1.27283 2.57816 1.41885 2.54571 1.55522 2.48168C1.69159 2.41764 1.81561 2.32329 1.92018 2.20404C2.02475 2.08479 2.10781 1.94298 2.16459 1.78675C2.22136 1.63052 2.25074 1.46295 2.25104 1.29364C2.2517 1.12354 2.22303 0.954988 2.1667 0.797698C2.11037 0.640408 2.02749 0.4975 1.92285 0.377226C1.8182 0.256951 1.69386 0.161692 1.55701 0.0969486C1.42016 0.0322049 1.27351 -0.000741137 1.12552 1.2648e-05C0.827107 0.00036056 0.541002 0.136765 0.329992 0.379291C0.118981 0.621817 0.000302702 0.950653 0 1.29364C0 2.002 0.50921 2.57718 1.12552 2.57718ZM5.07418 2.11502H17.2765C17.6874 2.11502 17.9999 1.7558 17.9999 1.29364C17.9999 0.821396 17.6874 0.462178 17.2765 0.462178H5.0738C4.67169 0.462178 4.35915 0.821396 4.35915 1.29364C4.35787 1.40191 4.37548 1.50938 4.41094 1.6097C4.4464 1.71002 4.49899 1.80116 4.56561 1.87772C4.63223 1.95429 4.71152 2.01474 4.79881 2.0555C4.88609 2.09625 4.9796 2.11649 5.0738 2.11502M1.12552 8.78859C1.27351 8.78935 1.42016 8.7564 1.55701 8.69166C1.69386 8.62691 1.8182 8.53165 1.92285 8.41138C2.02749 8.29111 2.11037 8.1482 2.1667 7.99091C2.22303 7.83362 2.2517 7.66506 2.25104 7.49497C2.2517 7.32488 2.22303 7.15632 2.1667 6.99903C2.11037 6.84174 2.02749 6.69883 1.92285 6.57856C1.8182 6.45828 1.69386 6.36302 1.55701 6.29828C1.42016 6.23354 1.27351 6.20059 1.12552 6.20134C0.827107 6.20169 0.541002 6.3381 0.329992 6.58062C0.118981 6.82315 0.000302702 7.15199 0 7.49497C0.000302702 7.83795 0.118981 8.16679 0.329992 8.40931C0.541002 8.65184 0.827107 8.78824 1.12552 8.78859ZM5.07418 8.32687H17.2765C17.3719 8.32816 17.4665 8.30752 17.5548 8.26617C17.6431 8.22481 17.7233 8.16358 17.7907 8.08606C17.8581 8.00855 17.9113 7.91632 17.9473 7.81481C17.9832 7.7133 18.0011 7.60455 17.9999 7.49497C17.9999 7.03324 17.6874 6.67359 17.2765 6.67359H5.0738C4.9796 6.67211 4.88609 6.69235 4.79881 6.73311C4.71152 6.77387 4.63223 6.83431 4.56561 6.91088C4.49899 6.98745 4.4464 7.07858 4.41094 7.1789C4.37548 7.27922 4.35787 7.3867 4.35915 7.49497C4.35915 7.95713 4.67169 8.32687 5.0738 8.32687M1.12552 15C1.42393 14.9997 1.71004 14.8632 1.92105 14.6207C2.13206 14.3782 2.25074 14.0494 2.25104 13.7064C2.2517 13.5363 2.22303 13.3677 2.1667 13.2104C2.11037 13.0531 2.02749 12.9102 1.92285 12.79C1.8182 12.6697 1.69386 12.5744 1.55701 12.5097C1.42016 12.4449 1.27351 12.412 1.12552 12.4128C0.827107 12.4131 0.541002 12.5495 0.329992 12.792C0.118981 13.0346 0.000302702 13.3634 0 13.7064C0.00170079 14.0489 0.120828 14.3768 0.331537 14.6189C0.542245 14.8611 0.827539 14.998 1.12552 15ZM5.07418 14.5278H17.2765C17.6874 14.5278 17.9999 14.1685 17.9999 13.7064C17.9999 13.2341 17.6874 12.8749 17.2765 12.8749H5.0738C4.67169 12.8749 4.35915 13.2341 4.35915 13.7064C4.35787 13.8146 4.37548 13.9221 4.41094 14.0224C4.4464 14.1228 4.49899 14.2139 4.56561 14.2905C4.63223 14.367 4.71152 14.4275 4.79881 14.4682C4.88609 14.509 4.9796 14.5292 5.0738 14.5278" fill="#FFDB27"/>
<path d="M1.12552 2.57718L1.13218 1.57718H1.12552V2.57718ZM2.25104 1.29364L1.25105 1.28978L1.25104 1.29187L2.25104 1.29364ZM1.12552 1.2648e-05L1.12669 1.00002L1.13061 1L1.12552 1.2648e-05ZM0 1.29364L-1 1.29275V1.29364H0ZM4.35915 1.29364L5.35915 1.30548V1.29364H4.35915ZM1.12552 8.78859L1.13061 7.7886L1.12669 7.78859L1.12552 8.78859ZM2.25104 7.49497L1.25102 7.49111L1.25105 7.49882L2.25104 7.49497ZM1.12552 6.20134L1.12669 7.20135L1.13061 7.20133L1.12552 6.20134ZM0 7.49497L-1 7.49409L-1 7.49585L0 7.49497ZM17.2765 8.32687L17.2901 7.32686H17.2765V8.32687ZM17.9999 7.49497H16.9999L17 7.5057L17.9999 7.49497ZM5.0738 6.67359L5.05816 7.67346L5.06598 7.67359H5.0738V6.67359ZM4.35915 7.49497H5.35922L5.35908 7.48313L4.35915 7.49497ZM1.12552 15L1.11896 16L1.12669 16L1.12552 15ZM2.25104 13.7064L1.25104 13.7025L1.25104 13.7055L2.25104 13.7064ZM1.12552 12.4128L1.12669 13.4128L1.13061 13.4127L1.12552 12.4128ZM0 13.7064L-1.00002 13.7055L-0.999988 13.7113L0 13.7064ZM4.35915 13.7064L5.35915 13.7182V13.7064H4.35915ZM1.11886 3.57716C1.41879 3.57916 1.71202 3.5128 1.98026 3.38685L1.13019 1.5765C1.12757 1.57772 1.12668 1.57781 1.1275 1.57763C1.12834 1.57745 1.13001 1.57719 1.13218 1.57721L1.11886 3.57716ZM1.98026 3.38685C2.24788 3.26118 2.48153 3.08063 2.67206 2.86335L1.16831 1.54474C1.1497 1.56596 1.13529 1.5741 1.13019 1.5765L1.98026 3.38685ZM2.67206 2.86335C2.86236 2.64632 3.00734 2.39552 3.10445 2.12831L1.22473 1.44519C1.20828 1.49044 1.18715 1.52326 1.16831 1.54474L2.67206 2.86335ZM3.10445 2.12831C3.20155 1.86112 3.25054 1.57842 3.25104 1.2954L1.25104 1.29187C1.25094 1.34748 1.24118 1.39993 1.22473 1.44519L3.10445 2.12831ZM3.25103 1.29749C3.25213 1.01333 3.20438 0.72923 3.10815 0.460536L1.22526 1.13486C1.24169 1.18075 1.25126 1.23376 1.25105 1.28978L3.25103 1.29749ZM3.10815 0.460536C3.01192 0.191829 2.86745 -0.0605781 2.67727 -0.279163L1.16842 1.03361C1.18753 1.05558 1.20883 1.08899 1.22526 1.13486L3.10815 0.460536ZM2.67727 -0.279163C2.48687 -0.498002 2.25295 -0.680072 1.98467 -0.806994L1.12936 1.00089C1.13478 1.00346 1.14953 1.0119 1.16842 1.03361L2.67727 -0.279163ZM1.98467 -0.806994C1.71578 -0.934204 1.42155 -1.00151 1.12043 -0.999974L1.13061 1C1.12854 1.00001 1.12697 0.999763 1.12625 0.999601C1.12556 0.999445 1.12659 0.999582 1.12936 1.00089L1.98467 -0.806994ZM1.12435 -0.999987C0.512692 -0.999274 -0.040331 -0.718566 -0.424432 -0.277097L1.08442 1.03568C1.10386 1.01333 1.1192 1.00442 1.12533 1.0015C1.13103 0.998778 1.13096 1.00001 1.12669 1.00001L1.12435 -0.999987ZM-0.424432 -0.277097C-0.804718 0.159986 -0.9995 0.726312 -1 1.29275L1 1.29452C1.00011 1.17499 1.04268 1.08365 1.08442 1.03568L-0.424432 -0.277097ZM-1 1.29364C-1 2.42976 -0.159871 3.57718 1.12552 3.57718V1.57718C1.14135 1.57718 1.12256 1.58613 1.08255 1.54064C1.04166 1.49414 1 1.40916 1 1.29364H-1ZM5.07418 3.11502H17.2765V1.11502H5.07418V3.11502ZM17.2765 3.11502C18.3585 3.11502 18.9999 2.18129 18.9999 1.29364H16.9999C16.9999 1.30051 16.9983 1.26638 17.0407 1.21808C17.0875 1.16469 17.1742 1.11502 17.2765 1.11502V3.11502ZM18.9999 1.29364C18.9999 0.404361 18.3659 -0.537822 17.2765 -0.537822V1.46218C17.1736 1.46218 17.0855 1.41188 17.0379 1.3572C16.9951 1.30803 16.9999 1.27669 16.9999 1.29364H18.9999ZM17.2765 -0.537822H5.0738V1.46218H17.2765V-0.537822ZM5.0738 -0.537822C3.98589 -0.537822 3.35915 0.412838 3.35915 1.29364H5.35915C5.35915 1.27657 5.36415 1.30616 5.32286 1.35403C5.27749 1.40662 5.18746 1.46218 5.0738 1.46218V-0.537822ZM3.35922 1.2818C3.35658 1.50545 3.39279 1.72988 3.46811 1.94297L5.35377 1.27644C5.35817 1.28888 5.35917 1.29837 5.35908 1.30547L3.35922 1.2818ZM3.46811 1.94297C3.54343 2.15606 3.65804 2.35809 3.81119 2.53411L5.32004 1.22134C5.33994 1.24422 5.34937 1.26398 5.35377 1.27644L3.46811 1.94297ZM3.81119 2.53411C3.96457 2.7104 4.155 2.85852 4.37572 2.96158L5.2219 1.14941C5.26804 1.17096 5.29989 1.19819 5.32004 1.22134L3.81119 2.53411ZM4.37572 2.96158C4.59707 3.06494 4.8403 3.11879 5.08944 3.1149L5.05816 1.11514C5.11889 1.11419 5.17512 1.12757 5.2219 1.14941L4.37572 2.96158ZM1.12043 9.78858C1.42155 9.79011 1.71578 9.72281 1.98467 9.5956L1.12936 7.78771C1.12659 7.78902 1.12556 7.78916 1.12625 7.789C1.12697 7.78884 1.12854 7.78859 1.13061 7.78861L1.12043 9.78858ZM1.98467 9.5956C2.25294 9.46868 2.48687 9.28661 2.67727 9.06777L1.16842 7.75499C1.14954 7.7767 1.13478 7.78515 1.12936 7.78771L1.98467 9.5956ZM2.67727 9.06777C2.86745 8.84918 3.01192 8.59678 3.10815 8.32807L1.22526 7.65375C1.20883 7.69962 1.18753 7.73303 1.16842 7.75499L2.67727 9.06777ZM3.10815 8.32807C3.20438 8.05938 3.25213 7.77528 3.25103 7.49111L1.25105 7.49882C1.25126 7.55485 1.24169 7.60786 1.22526 7.65375L3.10815 8.32807ZM3.25103 7.49882C3.25213 7.21466 3.20438 6.93056 3.10815 6.66187L1.22526 7.33619C1.24169 7.38208 1.25126 7.43509 1.25105 7.49111L3.25103 7.49882ZM3.10815 6.66187C3.01192 6.39316 2.86745 6.14075 2.67727 5.92217L1.16842 7.23495C1.18753 7.25691 1.20883 7.29032 1.22526 7.33619L3.10815 6.66187ZM2.67727 5.92217C2.48687 5.70333 2.25295 5.52126 1.98467 5.39434L1.12936 7.20222C1.13478 7.20479 1.14953 7.21324 1.16842 7.23495L2.67727 5.92217ZM1.98467 5.39434C1.71578 5.26713 1.42155 5.19982 1.12043 5.20136L1.13061 7.20133C1.12854 7.20134 1.12697 7.2011 1.12625 7.20093C1.12556 7.20078 1.12659 7.20091 1.12936 7.20222L1.98467 5.39434ZM1.12435 5.20135C0.512692 5.20206 -0.040331 5.48277 -0.424432 5.92423L1.08442 7.23701C1.10386 7.21466 1.1192 7.20575 1.12533 7.20283C1.13103 7.20011 1.13096 7.20134 1.12669 7.20134L1.12435 5.20135ZM-0.424432 5.92423C-0.804718 6.36132 -0.9995 6.92765 -1 7.49409L1 7.49585C1.00011 7.37633 1.04268 7.28498 1.08442 7.23701L-0.424432 5.92423ZM-1 7.49585C-0.9995 8.06229 -0.804717 8.62862 -0.424432 9.0657L1.08442 7.75293C1.04268 7.70496 1.00011 7.61361 1 7.49409L-1 7.49585ZM-0.424432 9.0657C-0.040331 9.50717 0.512692 9.78788 1.12435 9.78859L1.12669 7.78859C1.13096 7.7886 1.13103 7.78983 1.12533 7.78711C1.1192 7.78418 1.10386 7.77528 1.08442 7.75293L-0.424432 9.0657ZM5.07418 9.32687H17.2765V7.32686H5.07418V9.32687ZM17.263 9.32677C17.5129 9.33016 17.7569 9.27574 17.9789 9.17177L17.1307 7.36056C17.1761 7.3393 17.2308 7.32615 17.2901 7.32696L17.263 9.32677ZM17.9789 9.17177C18.2003 9.0681 18.3913 8.91931 18.5453 8.74225L17.0361 7.42987C17.0553 7.40785 17.0859 7.38153 17.1307 7.36056L17.9789 9.17177ZM18.5453 8.74225C18.699 8.56547 18.8142 8.36257 18.89 8.14851L17.0046 7.48112C17.0085 7.47008 17.0172 7.45163 17.0361 7.42987L18.5453 8.74225ZM18.89 8.14851C18.9657 7.93446 19.0023 7.70899 18.9999 7.48424L17 7.5057C16.9999 7.50012 17.0007 7.49214 17.0046 7.48112L18.89 8.14851ZM18.9999 7.49497C18.9999 6.60812 18.3588 5.67359 17.2765 5.67359V7.67359C17.1738 7.67359 17.0872 7.6237 17.0405 7.57055C16.9984 7.52249 16.9999 7.48848 16.9999 7.49497H18.9999ZM17.2765 5.67359H5.0738V7.67359H17.2765V5.67359ZM5.08944 5.67371C4.8403 5.66981 4.59707 5.72366 4.37572 5.82702L5.2219 7.6392C5.17511 7.66104 5.11889 7.67441 5.05816 7.67346L5.08944 5.67371ZM4.37572 5.82702C4.155 5.93008 3.96457 6.07821 3.81119 6.25449L5.32004 7.56727C5.2999 7.59042 5.26804 7.61765 5.2219 7.6392L4.37572 5.82702ZM3.81119 6.25449C3.65804 6.43051 3.54343 6.63254 3.46811 6.84564L5.35377 7.51217C5.34937 7.52462 5.33994 7.54439 5.32004 7.56727L3.81119 6.25449ZM3.46811 6.84564C3.39279 7.05872 3.35658 7.28315 3.35922 7.50681L5.35908 7.48313C5.35917 7.49024 5.35817 7.49973 5.35377 7.51217L3.46811 6.84564ZM3.35915 7.49497C3.35915 8.35654 3.97802 9.32687 5.0738 9.32687V7.32686C5.19688 7.32686 5.28586 7.38772 5.32581 7.43445C5.36195 7.47673 5.35915 7.50321 5.35915 7.49497H3.35915ZM1.12669 16C1.73835 15.9993 2.29137 15.7186 2.67547 15.2771L1.16663 13.9643C1.14718 13.9867 1.13184 13.9956 1.12571 13.9985C1.12001 14.0012 1.12008 14 1.12435 14L1.12669 16ZM2.67547 15.2771C3.05576 14.84 3.25054 14.2737 3.25104 13.7073L1.25104 13.7055C1.25094 13.825 1.20836 13.9164 1.16663 13.9643L2.67547 15.2771ZM3.25103 13.7102C3.25213 13.4261 3.20438 13.142 3.10815 12.8733L1.22526 13.5476C1.24169 13.5935 1.25126 13.6465 1.25105 13.7025L3.25103 13.7102ZM3.10815 12.8733C3.01192 12.6046 2.86745 12.3522 2.67727 12.1336L1.16842 13.4464C1.18753 13.4683 1.20883 13.5017 1.22526 13.5476L3.10815 12.8733ZM2.67727 12.1336C2.48687 11.9147 2.25294 11.7327 1.98467 11.6057L1.12936 13.4136C1.13478 13.4162 1.14954 13.4246 1.16842 13.4464L2.67727 12.1336ZM1.98467 11.6057C1.71578 11.4785 1.42155 11.4112 1.12043 11.4128L1.13061 13.4127C1.12854 13.4128 1.12697 13.4125 1.12625 13.4123C1.12556 13.4122 1.12659 13.4123 1.12936 13.4136L1.98467 11.6057ZM1.12435 11.4128C0.512692 11.4135 -0.040331 11.6942 -0.424432 12.1356L1.08442 13.4484C1.10386 13.4261 1.1192 13.4172 1.12533 13.4142C1.13103 13.4115 1.13096 13.4127 1.12669 13.4128L1.12435 11.4128ZM-0.424432 12.1356C-0.804717 12.5727 -0.9995 13.1391 -1 13.7055L1 13.7073C1.00011 13.5877 1.04268 13.4964 1.08442 13.4484L-0.424432 12.1356ZM-0.999988 13.7113C-0.997184 14.276 -0.80187 14.8397 -0.422887 15.2753L1.08596 13.9626C1.04353 13.9138 1.00059 13.8217 0.999988 13.7014L-0.999988 13.7113ZM-0.422887 15.2753C-0.040182 15.7152 0.509825 15.996 1.11896 16L1.13208 14C1.1356 14 1.13489 14.0011 1.12848 13.998C1.12164 13.9947 1.10578 13.9853 1.08596 13.9626L-0.422887 15.2753ZM5.07418 15.5278H17.2765V13.5278H5.07418V15.5278ZM17.2765 15.5278C18.3585 15.5278 18.9999 14.594 18.9999 13.7064H16.9999C16.9999 13.7133 16.9983 13.6791 17.0407 13.6308C17.0875 13.5774 17.1742 13.5278 17.2765 13.5278V15.5278ZM18.9999 13.7064C18.9999 12.8171 18.3659 11.8749 17.2765 11.8749V13.8749C17.1736 13.8749 17.0855 13.8246 17.0379 13.7699C16.9951 13.7208 16.9999 13.6894 16.9999 13.7064H18.9999ZM17.2765 11.8749H5.0738V13.8749H17.2765V11.8749ZM5.0738 11.8749C3.98589 11.8749 3.35915 12.8256 3.35915 13.7064H5.35915C5.35915 13.6893 5.36415 13.7189 5.32286 13.7668C5.27749 13.8194 5.18746 13.8749 5.0738 13.8749V11.8749ZM3.35922 13.6945C3.35658 13.9182 3.39279 14.1426 3.46811 14.3557L5.35377 13.6892C5.35817 13.7016 5.35917 13.7111 5.35908 13.7182L3.35922 13.6945ZM3.46811 14.3557C3.54343 14.5688 3.65804 14.7708 3.81119 14.9469L5.32004 13.6341C5.33995 13.657 5.34937 13.6767 5.35377 13.6892L3.46811 14.3557ZM3.81119 14.9469C3.96457 15.1231 4.15501 15.2713 4.37572 15.3743L5.2219 13.5621C5.26804 13.5837 5.29989 13.6109 5.32004 13.6341L3.81119 14.9469ZM4.37572 15.3743C4.59706 15.4777 4.84029 15.5315 5.08944 15.5276L5.05816 13.5279C5.1189 13.5269 5.17512 13.5403 5.2219 13.5621L4.37572 15.3743Z" fill="#FFDB27" mask="url(#path-1-inside-1_296_2155)"/>
</svg>
