<svg width="19" height="19" viewBox="0 0 19 19" fill="none" xmlns="http://www.w3.org/2000/svg">
<path d="M1 5.25H18M3.125 1H15.875C16.4386 1 16.9791 1.22388 17.3776 1.6224C17.7761 2.02091 18 2.56141 18 3.125V15.875C18 16.4386 17.7761 16.9791 17.3776 17.3776C16.9791 17.7761 16.4386 18 15.875 18H3.125C2.56141 18 2.02091 17.7761 1.6224 17.3776C1.22388 16.9791 1 16.4386 1 15.875V3.125C1 2.56141 1.22388 2.02091 1.6224 1.6224C2.02091 1.22388 2.56141 1 3.125 1Z" stroke="#FFDB27" stroke-width="1.5" stroke-linecap="round" stroke-linejoin="round"/>
<path d="M9.8125 9.5C9.8125 9.67259 9.67259 9.8125 9.5 9.8125C9.32741 9.8125 9.1875 9.67259 9.1875 9.5C9.1875 9.32741 9.32741 9.1875 9.5 9.1875C9.67259 9.1875 9.8125 9.32741 9.8125 9.5Z" fill="#FFDB27" stroke="#FFDB27" stroke-width="1.5"/>
<path d="M5.5625 9.5C5.5625 9.67259 5.42259 9.8125 5.25 9.8125C5.07741 9.8125 4.9375 9.67259 4.9375 9.5C4.9375 9.32741 5.07741 9.1875 5.25 9.1875C5.42259 9.1875 5.5625 9.32741 5.5625 9.5Z" fill="#FFDB27" stroke="#FFDB27" stroke-width="1.5"/>
<path d="M14.0625 9.5C14.0625 9.67259 13.9226 9.8125 13.75 9.8125C13.5774 9.8125 13.4375 9.67259 13.4375 9.5C13.4375 9.32741 13.5774 9.1875 13.75 9.1875C13.9226 9.1875 14.0625 9.32741 14.0625 9.5Z" fill="#FFDB27" stroke="#FFDB27" stroke-width="1.5"/>
<path d="M9.8125 13.75C9.8125 13.9226 9.67259 14.0625 9.5 14.0625C9.32741 14.0625 9.1875 13.9226 9.1875 13.75C9.1875 13.5774 9.32741 13.4375 9.5 13.4375C9.67259 13.4375 9.8125 13.5774 9.8125 13.75Z" fill="#FFDB27" stroke="#FFDB27" stroke-width="1.5"/>
<path d="M5.5625 13.75C5.5625 13.9226 5.42259 14.0625 5.25 14.0625C5.07741 14.0625 4.9375 13.9226 4.9375 13.75C4.9375 13.5774 5.07741 13.4375 5.25 13.4375C5.42259 13.4375 5.5625 13.5774 5.5625 13.75Z" fill="#FFDB27" stroke="#FFDB27" stroke-width="1.5"/>
<path d="M14.0625 13.75C14.0625 13.9226 13.9226 14.0625 13.75 14.0625C13.5774 14.0625 13.4375 13.9226 13.4375 13.75C13.4375 13.5774 13.5774 13.4375 13.75 13.4375C13.9226 13.4375 14.0625 13.5774 14.0625 13.75Z" fill="#FFDB27" stroke="#FFDB27" stroke-width="1.5"/>
</svg>
